<?xml version="1.0" standalone="no"?>
<!DOCTYPE svg PUBLIC "-//W3C//DTD SVG 20010904//EN"
 "http://www.w3.org/TR/2001/REC-SVG-20010904/DTD/svg10.dtd">
<svg version="1.0" xmlns="http://www.w3.org/2000/svg"
 width="201.000000pt" height="201.000000pt" viewBox="0 0 201.000000 201.000000"
 preserveAspectRatio="xMidYMid meet">
<metadata>
Created by potrace 1.14, written by Peter Selinger 2001-2017
</metadata>
<g transform="translate(0.000000,201.000000) scale(0.100000,-0.100000)"
fill="#000000" stroke="none">
<path d="M806 1988 c-3 -13 -6 -40 -6 -60 0 -31 -4 -38 -22 -42 -13 -3 -183
-17 -378 -31 -399 -30 -400 -30 -400 -50 0 -19 -18 -20 452 15 222 16 527 39
678 50 253 18 340 24 715 50 72 5 138 9 148 10 11 0 17 8 17 25 0 25 -1 26
-57 21 -98 -10 -299 -26 -513 -41 -113 -8 -295 -22 -404 -30 -110 -8 -202 -13
-204 -10 -3 3 -4 30 -3 60 2 55 -11 75 -23 33z m-183 -145 c-7 -2 -21 -2 -30
0 -10 3 -4 5 12 5 17 0 24 -2 18 -5z"/>
<path d="M830 1813 c-29 -6 -52 -22 -45 -33 5 -8 -28 -19 -60 -20 -11 0 -42
-23 -68 -50 -39 -39 -48 -55 -45 -77 2 -15 -1 -28 -7 -28 -24 -1 -36 -18 -30
-42 4 -17 0 -32 -11 -44 -14 -16 -15 -26 -4 -91 6 -40 16 -94 22 -121 5 -26
10 -63 10 -82 0 -49 16 -54 23 -8 4 21 13 64 21 95 8 32 12 74 8 95 -5 32 0
47 26 90 26 42 45 58 96 83 l63 32 165 -4 165 -3 35 -34 c20 -19 36 -41 36
-48 0 -7 14 -39 30 -70 17 -31 30 -63 30 -73 0 -9 14 -56 30 -105 17 -49 30
-99 30 -112 0 -14 6 -23 15 -23 9 0 18 -7 21 -15 10 -25 24 -17 24 15 0 31
-17 39 -38 18 -18 -18 -16 17 3 45 44 68 47 169 12 361 -13 71 -39 106 -78
106 -10 0 -19 4 -19 10 0 5 8 7 18 4 13 -5 14 -4 3 4 -8 6 -19 8 -26 6 -6 -3
-31 14 -55 36 -28 26 -53 40 -70 40 -15 0 -39 9 -53 20 -21 17 -44 21 -139 24
-62 2 -124 1 -138 -1z m63 -48 c-3 -9 -8 -14 -10 -11 -3 3 -2 9 2 15 9 16 15
13 8 -4z m187 -19 c0 -3 -4 -8 -10 -11 -5 -3 -10 -1 -10 4 0 6 5 11 10 11 6 0
10 -2 10 -4z m-343 -112 c-3 -3 -12 -4 -19 -1 -8 3 -5 6 6 6 11 1 17 -2 13 -5z"/>
<path d="M1030 1373 c-11 -8 -20 -18 -20 -24 0 -11 69 -11 127 0 28 5 54 4 80
-5 48 -17 48 -17 33 1 -7 8 -23 15 -35 15 -13 0 -25 4 -27 10 -5 16 -135 19
-158 3z"/>
<path d="M793 1369 c-43 -12 -42 -25 3 -34 85 -16 104 -64 22 -56 -9 1 -31 -5
-47 -14 -21 -10 -31 -12 -31 -4 0 8 -4 8 -15 -1 -22 -18 -19 -39 5 -33 28 7
92 -6 85 -18 -7 -10 -3 -11 18 -3 9 3 12 14 9 32 l-5 27 23 -24 24 -24 23 27
c31 37 32 99 1 120 -25 18 -66 19 -115 5z"/>
<path d="M1050 1280 c0 -25 42 -70 65 -70 9 0 26 5 38 12 12 6 37 11 55 9 28
-2 33 0 30 15 -2 13 -13 19 -34 20 -40 2 -74 13 -74 25 0 5 -18 9 -40 9 -34 0
-40 -3 -40 -20z"/>
<path d="M580 1111 c0 -17 5 -33 10 -36 6 -4 10 8 10 29 0 20 -4 36 -10 36 -5
0 -10 -13 -10 -29z"/>
<path d="M930 1091 c-14 -4 -25 -12 -24 -19 2 -28 5 -32 19 -32 9 0 18 -6 21
-13 6 -16 46 -15 52 1 2 7 12 12 23 12 22 0 37 27 23 39 -13 12 -85 20 -114
12z"/>
<path d="M1332 995 c-7 -14 -12 -41 -12 -59 0 -24 -14 -51 -51 -100 -56 -74
-72 -85 -100 -67 -15 9 -19 8 -19 -4 0 -16 -23 -19 -142 -15 -36 1 -92 -4
-123 -10 -48 -10 -60 -9 -81 5 -14 9 -33 13 -44 10 -12 -4 -20 -2 -20 5 0 6
-5 8 -12 4 -6 -4 -21 5 -36 22 -19 23 -23 25 -19 9 14 -58 46 -123 74 -154 74
-82 183 -214 183 -222 0 -15 27 -10 41 7 7 9 55 50 106 91 51 41 93 78 93 81
0 16 108 130 116 122 6 -5 692 13 722 19 1 1 2 12 2 26 l0 26 -112 -6 c-62 -3
-196 -10 -297 -15 -102 -6 -213 -10 -247 -10 l-63 0 26 78 c14 42 30 82 35 89
5 7 5 14 -2 18 -6 4 -8 20 -4 41 7 40 2 44 -14 9z"/>
<path d="M904 956 c-23 -10 -35 -11 -43 -3 -15 15 -51 -19 -51 -49 0 -25 21
-45 28 -25 2 7 13 20 24 31 17 15 31 17 101 13 49 -4 98 -13 121 -24 49 -23
46 -23 46 2 0 25 -42 63 -52 46 -5 -8 -10 -7 -20 1 -24 19 -119 24 -154 8z"/>
<path d="M898 868 c-39 -39 -15 -55 72 -49 56 4 71 11 68 34 -3 19 -11 23 -63
27 -48 5 -63 2 -77 -12z"/>
<path d="M430 720 c-445 -22 -430 -21 -430 -41 0 -23 -19 -22 310 -9 365 16
380 17 380 41 0 22 0 22 -260 9z"/>
<path d="M1283 574 c4 -27 9 -63 13 -80 5 -29 1 -35 -51 -78 -41 -33 -77 -52
-128 -67 -40 -11 -88 -27 -108 -36 -50 -21 -110 -7 -219 50 -114 60 -133 92
-115 196 l8 44 -37 -6 c-34 -5 -99 -44 -166 -97 -24 -20 -28 -20 -63 -5 -20 8
-50 15 -66 15 -59 0 -78 -15 -115 -93 -20 -41 -36 -78 -36 -83 0 -6 -20 -15
-44 -22 -24 -6 -69 -23 -100 -36 l-56 -25 0 -125 0 -126 1005 0 1005 0 0 78
c0 63 -4 82 -17 94 -25 21 -92 51 -273 122 -133 52 -155 64 -158 84 -2 13 -10
26 -17 29 -10 3 -12 14 -9 32 7 32 -21 94 -58 128 -24 23 -83 42 -157 50 l-44
5 6 -48z"/>
</g>
</svg>
